<svg width="115" height="32" viewBox="0 0 115 32" fill="none" xmlns="http://www.w3.org/2000/svg">
<path fill-rule="evenodd" clip-rule="evenodd" d="M9.28274 8.14107C11.6061 4.07734 15.9838 1.33301 21 1.33301C27.2971 1.33301 32.5783 5.63871 34.068 11.4839C38.5555 12.1563 42 15.9878 42 20.6663C42 25.8186 37.8189 29.9997 32.6667 29.9997C32.1144 29.9997 31.6667 29.552 31.6667 28.9997C31.6667 28.4474 32.1144 27.9997 32.6667 27.9997C36.7144 27.9997 40 24.7141 40 20.6663C40 16.802 37.0002 13.6617 33.1809 13.3973L32.417 13.3444L32.2689 12.5931C31.2261 7.30241 26.5795 3.33301 21 3.33301C16.5712 3.33301 12.7218 5.84535 10.8036 9.52828L10.5558 10.004L10.0224 10.0607C5.50996 10.5405 2 14.3653 2 18.9997C2 24.0326 5.60179 27.9997 10.5 27.9997C11.0523 27.9997 11.5 28.4474 11.5 28.9997C11.5 29.552 11.0523 29.9997 10.5 29.9997C4.36487 29.9997 0 25 0 18.9997C0 13.5161 4.01881 8.96031 9.28274 8.14107Z" fill="black"/>
<path d="M27 27.1082V21.6993C26.9255 21.5016 26.7946 21.3377 26.6317 21.2378L24.1041 19.6886C24.0484 19.6545 23.9809 19.6611 23.9308 19.7058C23.2158 20.3424 22.3753 20.6789 21.5 20.6789C20.6246 20.6789 19.7841 20.3424 19.0692 19.7058C19.019 19.6611 18.9515 19.6545 18.8957 19.6886L16.3683 21.2378C16.2053 21.3377 16.0746 21.5015 16 21.6993V27.5935" stroke="#9A0000" stroke-width="2"/>
<circle cx="21.5" cy="14.9003" r="2.96667" stroke="#9A0000" stroke-width="2"/>
<path d="M17.003 28.0096C19.2158 29.6709 21.5256 30.667 21.5256 30.667C21.5256 30.667 30 26.9975 30 21.9983V12.0286L21.5525 8.66699L19.4185 9.50739M23.5815 9.50739L21.4475 8.66699L13 12.0286V21.9983C13 26.9975 21.4744 30.667 21.4744 30.667C21.4744 30.667 23.7842 29.6709 25.997 28.0096" stroke="#F48220" stroke-width="2" stroke-linecap="round" stroke-linejoin="round"/>
<path d="M64.44 16.66V16.62C64.44 15.8467 64.2933 15.1267 64 14.46C63.7067 13.78 63.3 13.1933 62.78 12.7C62.2733 12.1933 61.6667 11.8 60.96 11.52C60.2533 11.2267 59.4867 11.08 58.66 11.08C57.82 11.08 57.0467 11.2267 56.34 11.52C55.6333 11.8133 55.02 12.2133 54.5 12.72C53.98 13.2267 53.5733 13.82 53.28 14.5C52.9867 15.1667 52.84 15.8867 52.84 16.66V16.7C52.84 17.4733 52.9867 18.2 53.28 18.88C53.5733 19.5467 53.9733 20.1333 54.48 20.64C55 21.1333 55.6133 21.5267 56.32 21.82C57.0267 22.1 57.7933 22.24 58.62 22.24C59.46 22.24 60.2333 22.0933 60.94 21.8C61.6467 21.5067 62.26 21.1067 62.78 20.6C63.3 20.0933 63.7067 19.5067 64 18.84C64.2933 18.16 64.44 17.4333 64.44 16.66ZM61.44 16.7C61.44 17.1 61.3733 17.48 61.24 17.84C61.12 18.1867 60.94 18.4933 60.7 18.76C60.46 19.0267 60.1667 19.24 59.82 19.4C59.4867 19.5467 59.1 19.62 58.66 19.62C58.2333 19.62 57.8467 19.54 57.5 19.38C57.1667 19.22 56.8733 19.0067 56.62 18.74C56.3667 18.46 56.1733 18.1467 56.04 17.8C55.9067 17.44 55.84 17.06 55.84 16.66V16.62C55.84 16.22 55.9 15.8467 56.02 15.5C56.1533 15.14 56.34 14.8267 56.58 14.56C56.82 14.2933 57.1067 14.0867 57.44 13.94C57.7867 13.78 58.18 13.7 58.62 13.7C59.0333 13.7 59.4133 13.78 59.76 13.94C60.1067 14.1 60.4067 14.32 60.66 14.6C60.9133 14.8667 61.1067 15.18 61.24 15.54C61.3733 15.8867 61.44 16.26 61.44 16.66V16.7ZM80.6013 22L74.6013 7.9H71.7613L65.7613 22H68.9013L70.1813 18.86H76.1013L77.3813 22H80.6013ZM75.0013 16.14H71.2813L73.1413 11.6L75.0013 16.14ZM92.182 22V11.28H89.142V17.26C89.142 17.98 88.9687 18.5267 88.622 18.9C88.2887 19.26 87.8287 19.44 87.242 19.44C86.6554 19.44 86.202 19.26 85.882 18.9C85.562 18.5267 85.402 17.98 85.402 17.26V11.28H82.362V18.22C82.362 19.46 82.6754 20.4333 83.302 21.14C83.942 21.8467 84.842 22.2 86.002 22.2C86.3887 22.2 86.7354 22.1533 87.042 22.06C87.3487 21.9667 87.6287 21.84 87.882 21.68C88.1354 21.52 88.362 21.34 88.562 21.14C88.7754 20.9267 88.9687 20.7067 89.142 20.48V22H92.182ZM100.923 21.56V19.12C100.456 19.3733 99.9563 19.5 99.423 19.5C98.7696 19.5 98.443 19.1533 98.443 18.46V13.88H100.963V11.28H98.443V8.54H95.403V11.28H94.123V13.88H95.403V18.96C95.403 19.5867 95.4763 20.1067 95.623 20.52C95.783 20.92 95.9963 21.2467 96.263 21.5C96.543 21.7533 96.8696 21.9267 97.243 22.02C97.6296 22.1267 98.0563 22.18 98.523 22.18C99.0296 22.18 99.4763 22.12 99.863 22C100.25 21.8933 100.603 21.7467 100.923 21.56ZM113.024 22V15.06C113.024 13.82 112.704 12.8467 112.064 12.14C111.437 11.4333 110.544 11.08 109.384 11.08C108.997 11.08 108.65 11.1267 108.344 11.22C108.037 11.3133 107.757 11.44 107.504 11.6C107.25 11.76 107.017 11.9467 106.804 12.16C106.604 12.36 106.417 12.5733 106.244 12.8V7.4H103.204V22H106.244V16.02C106.244 15.3 106.41 14.76 106.744 14.4C107.09 14.0267 107.557 13.84 108.144 13.84C108.73 13.84 109.184 14.0267 109.504 14.4C109.824 14.76 109.984 15.3 109.984 16.02V22H113.024Z" fill="black"/>
</svg>
