<svg width="43" height="32" viewBox="0 0 43 32" fill="none" xmlns="http://www.w3.org/2000/svg">
<path d="M18.2237 5.76229C17.7805 4.5165 16.8154 3.42254 15.4295 2.5962L15.4288 2.59518H15.4276C13.9824 1.75917 12.183 1.33496 10.0788 1.33496C8.4666 1.33496 7.0814 1.60497 5.848 2.1613C4.63844 2.68094 3.67129 3.43273 2.97632 4.39254C2.26766 5.37222 1.8425 6.37551 1.713 7.37438C1.57337 8.49636 1.5 10.0651 1.5 11.9116V20.0026C1.5 22.8151 1.72535 24.84 2.18753 26.1938C2.18753 26.193 2.18686 26.1919 2.18601 26.1901C2.61675 27.5737 3.5582 28.6845 4.9855 29.4896C6.36462 30.2698 8.14862 30.6649 10.2905 30.6649C12.3156 30.6649 14.075 30.1954 15.5187 29.2726C16.8997 28.3634 17.8227 27.271 18.2653 26.0262L18.2667 26.0231L18.2672 26.0202C18.6675 24.7707 18.8702 22.6888 18.8702 19.8319V18.7675V18.5803H18.6837H11.5198H11.3335V18.7675V22.2588C11.3335 23.7331 11.2524 24.6829 11.0925 25.084C10.9577 25.4245 10.7004 25.5622 10.2056 25.5622C9.55326 25.5622 9.36426 25.2982 9.28126 25.0946C9.18794 24.7804 9.07772 24.0774 9.07772 22.5143V9.61292C9.07772 8.32858 9.15177 7.34211 9.28126 6.90483C9.4214 6.56112 9.73871 6.39435 10.2482 6.39435C10.5596 6.39435 10.9577 6.46857 11.0911 6.8262L11.0945 6.83486L11.0992 6.84369C11.2061 7.05868 11.3335 7.67665 11.3335 9.3998V14.2113V14.3984H11.5198H18.6837H18.8702V14.2113V11.5713C18.8702 8.96591 18.6533 7.01046 18.2237 5.76229" stroke="#1A1919" stroke-width="1.66"/>
<path d="M30.5286 14.2447L31.3324 14.4518L31.3324 14.4518L30.5286 14.2447ZM32.1399 7.99198H32.9699L31.3362 7.78486L32.1399 7.99198ZM32.1399 20.4984V21.3284H32.9699V20.4984H32.1399ZM28.9168 20.4984L28.1131 20.2913L27.8457 21.3284H28.9168V20.4984ZM39.3952 20.4985H38.5652V21.3285H39.3952V20.4985ZM39.3952 1.33496H40.2252V0.504961H39.3952V1.33496ZM29.7669 1.33496V0.504961H29.1664L28.9786 1.07523L29.7669 1.33496ZM23.4529 20.4985L22.6646 20.2388L22.6229 20.3653V20.4985H23.4529ZM23.4529 25.4908H22.6229V26.3208H23.4529V25.4908ZM32.1399 25.4908H32.9699V24.6608H32.1399V25.4908ZM32.1399 30.6649H31.3099V31.4949H32.1399V30.6649ZM39.3952 30.6649V31.4949H40.2252V30.6649H39.3952ZM39.3952 25.4908V24.6608H38.5652V25.4908H39.3952ZM41.4999 25.4908V26.3208H42.3299V25.4908H41.4999ZM41.4999 20.4985H42.3299V19.6685H41.4999V20.4985ZM31.3324 14.4518L32.9437 8.19911L31.3362 7.78486L29.7249 14.0376L31.3324 14.4518ZM31.3099 7.99198V20.4984H32.9699V7.99198H31.3099ZM32.1399 19.6684H28.9168V21.3284H32.1399V19.6684ZM29.7205 20.7056L31.3324 14.4518L29.7249 14.0375L28.1131 20.2913L29.7205 20.7056ZM40.2252 20.4985V1.33496H38.5652V20.4985H40.2252ZM39.3952 0.504961H29.7669V2.16496H39.3952V0.504961ZM28.9786 1.07523L22.6646 20.2388L24.2413 20.7582L30.5552 1.59469L28.9786 1.07523ZM22.6229 20.4985V25.4908H24.2829V20.4985H22.6229ZM23.4529 26.3208H32.1399V24.6608H23.4529V26.3208ZM31.3099 25.4908V30.6649H32.9699V25.4908H31.3099ZM32.1399 31.4949H39.3952V29.8349H32.1399V31.4949ZM40.2252 30.6649V25.4908H38.5652V30.6649H40.2252ZM39.3952 26.3208H41.4999V24.6608H39.3952V26.3208ZM42.3299 25.4908V20.4985H40.6699V25.4908H42.3299ZM41.4999 19.6685H39.3952V21.3285H41.4999V19.6685Z" fill="#F48220"/>
</svg>
